<svg xmlns="http://www.w3.org/2000/svg" viewBox="0 0 160 120">
  <!-- PCB-look backdrop -->
  <rect x="4" y="4" width="152" height="112" rx="8" fill="#0e5c40"/>
  <circle cx="16" cy="16" r="4" fill="none" stroke="#c9a24b" stroke-width="2"/>
  <circle cx="144" cy="16" r="4" fill="none" stroke="#c9a24b" stroke-width="2"/>
  <circle cx="16" cy="104" r="4" fill="none" stroke="#c9a24b" stroke-width="2"/>
  <circle cx="144" cy="104" r="4" fill="none" stroke="#c9a24b" stroke-width="2"/>
  <!-- silkscreen bot, matching robro-bot.kicad_mod (mm x8, centred at 80,64) -->
  <g stroke="#f4f1e8" stroke-width="2" fill="none">
    <rect x="48" y="40" width="64" height="48"/>
    <line x1="80" y1="40" x2="80" y2="27.2"/>
    <line x1="35.2" y1="51.2" x2="48" y2="51.2"/>
    <line x1="35.2" y1="51.2" x2="35.2" y2="67.2"/>
    <line x1="35.2" y1="67.2" x2="48" y2="67.2"/>
    <line x1="112" y1="51.2" x2="124.8" y2="51.2"/>
    <line x1="124.8" y1="51.2" x2="124.8" y2="67.2"/>
    <line x1="112" y1="67.2" x2="124.8" y2="67.2"/>
    <polyline points="67.2,71.2 67.2,75.2 92.8,75.2 92.8,71.2"/>
  </g>
  <g fill="#f4f1e8">
    <circle cx="65.6" cy="57.6" r="5.6"/>
    <circle cx="94.4" cy="57.6" r="5.6"/>
    <circle cx="80" cy="23.2" r="4"/>
  </g>
</svg>
